<svg xmlns="http://www.w3.org/2000/svg" xmlns:xlink="http://www.w3.org/1999/xlink" id="Layer_1" x="0" y="0" version="1.1" viewBox="0 0 16 280" style="enable-background:new 0 0 16 280" xml:space="preserve"><style type="text/css">.st0{fill:#fff;stroke:#5d9dd5;stroke-miterlimit:10}.st1{fill:#5d9dd5}</style><path d="M10,25H6c-1.7,0-3-1.4-3-3v-4c0-1.6,1.3-3,3-3h4c1.6,0,3,1.4,3,3v4C13,23.6,11.6,25,10,25z" class="st0"/><path d="M10,265H6c-1.7,0-3-1.3-3-3v-4c0-1.7,1.3-3,3-3h4c1.6,0,3,1.3,3,3v4C13,263.7,11.6,265,10,265z" class="st1"/></svg>